<?xml version="1.0" standalone="no"?>
<!DOCTYPE svg PUBLIC "-//W3C//DTD SVG 20010904//EN"
 "http://www.w3.org/TR/2001/REC-SVG-20010904/DTD/svg10.dtd">
<svg version="1.0" xmlns="http://www.w3.org/2000/svg"
 width="512.000000pt" height="512.000000pt" viewBox="0 0 512.000000 512.000000"
 preserveAspectRatio="xMidYMid meet">
<g transform="translate(0.000000,512.000000) scale(0.100000,-0.100000)"
fill="#000000" stroke="none">
<path d="M2636 5082 c-2 -4 -5 -858 -5 -1897 0 -1040 0 -1896 -1 -1903 0 -9
-15 -2 -39 17 -206 163 -601 151 -955 -28 -135 -69 -246 -149 -346 -250 -61
-62 -152 -179 -156 -201 0 -6 -32 -77 -46 -103 -14 -28 -23 -104 -22 -188 2
-162 107 -295 284 -362 106 -40 291 -52 427 -28 32 6 70 12 84 15 14 2 75 20
135 41 340 113 638 369 723 621 11 33 22 73 25 89 2 17 5 685 5 1486 l1 1456
53 -9 c28 -5 76 -20 105 -33 83 -38 324 -204 421 -290 112 -99 261 -267 261
-293 0 -6 4 -12 8 -14 15 -6 79 -131 105 -205 43 -119 55 -209 51 -371 -1 -81
-5 -161 -8 -179 -3 -17 -8 -51 -11 -74 -19 -150 -51 -272 -123 -464 -33 -90
-30 -125 11 -125 74 0 195 273 256 580 6 30 14 66 16 80 46 226 39 450 -20
655 -48 167 -127 308 -295 525 -83 107 -156 202 -163 210 -7 8 -35 44 -62 80
-28 36 -53 67 -56 70 -3 3 -29 37 -58 75 -30 39 -57 72 -62 73 -5 2 -9 10 -9
17 0 7 -3 15 -7 17 -28 12 -149 232 -240 438 -11 25 -64 143 -118 263 l-98
217 -33 0 c-18 0 -35 -4 -38 -8z"/>
</g>
</svg>
